<svg xmlns="http://www.w3.org/2000/svg" version="1.1" viewBox="0 0 48 48">
<path stroke="#65aa13" stroke-width="0.5" fill="#65aa13" d="m28.2,36.1c-0.117,0.133-0.514,0.441-1.01,0.85-0.493,0.409-1.08,0.965-1.64,1.73-1.12,1.53-2.07,3.91-1.98,7.74l1.01-0.031c-0.082-3.66,0.808-5.79,1.79-7.15,0.493-0.678,1.02-1.16,1.48-1.54,0.457-0.379,0.815-0.617,1.1-0.944l-0.756-0.661z"/>
<path d="m32.8,32.4c0.505,1.24,1.89,5.47,1.54,6.97-0.781,3.33-6.44,2.59-6.78,2.48-1.2-0.373-1.86-1.41-2.94-2.25-2.04-1.41-4.57-6.4-7-5.87-11.5,2.51-16.5-20.5,5.71-24.5,10.8-3.04,15.5,9.26,11.8,16.5-0.761,1.5-2.94,5.17-2.37,6.58z" fill="#f67d1f"/>
<path d="m20.5,11.4c2.01,3.9-5.67,9.5-10.1,7.03-1.05-1.41-1.3-5.02-1.14-7.31,0.359-5.36,0.862-7.6,3.67-7.14,2.35,0.382,6.06,2.69,7.58,7.42z" fill="#252220"/>
<path d="m39.4,10.5c-1.77,3.71-2.97,6.86-3.77,6.81-1.25-0.083-3.77-2.07-5.4-4.2-0.913-1.19,1.2-4.88,5.68-8.38,0.952-0.745,4.72-2.71,6.05-2.37,2.46,0.622-1.48,5.9-2.55,8.16z" fill="#252220"/>
<path d="m28.9,36.7c3.57,1.4,5.17,2.27,5.02,3.11-0.399,2.23-3.88,2.01-4.07,2.09-3.97,1.49-9.21-8.9-11.8-8.22-4.21,1.1-7.56-1.7-8.45-3.89-1.44-3.53,0.446-5.57,4.24-3.76,1.33,0.633,2.92,2.53,5.25,3.11,1.44,0.359,4.71,4.73,6.71,6.4,1.09,0.915,2.57,0.944,3.12,1.16z" fill="#FFF"/>
<path d="m25.2,27.8c-0.404,0.203-1.82,0.365-2.79,0.27-1.25-0.122-2.42-1.77-1.81-2.11,1-0.547,1.17-0.411,1.81-0.416,1.64-0.015,2.88,2.21,2.79,2.25z" fill="#000"/>
<path d="m32.2,26.3c-1.19,0.707-2.16,0.512-2.19,0.474,0.0737-2.23,1.07-2.66,1.19-2.75,0.409-0.331,1.32-0.194,1.58,0.098,0.531,0.642,0.11,1.33-0.11,1.73-0.127,0.18-0.269,0.342-0.466,0.441z" fill="#000"/>
<path stroke="#605d5d" d="m41.9,2.06c-1.51-0.056-4.86,1.74-5.75,2.44-2.19,1.71-3.9,3.57-4.94,5.12-4.32-1.87-8.12-0.984-11.2,0.234-2.09-4-6.4-6.46-7.19-6.42-3.1-0.036-3.38,1.82-3.84,7.34-0.18,2.13,0.0301,5.07,0.75,6.72-2.99,4.25-1.94,10.6,1,13.8,0.552,0.63,1.3,1.19,2.19,1.62,0.0847,0.043,0.164,0.085,0.25,0.125,0.0214,0.01,0.041,0.022,0.0625,0.031,1.57,0.807,3.57,0.816,4.97,0.406,0.0512-0.013,0.103-0.026,0.156-0.031,1.94-0.075,3.32,2.99,6.36,5.8,0.972,1.23,2.7,2.7,5.28,2.55,1.28-0.071,2.35-0.091,3.33-0.972,0.59-0.394,1.07-0.906,1.25-1.69,0.353-1.51-1.06-5.76-1.56-7-0.575-1.41,1.61-5.06,2.38-6.56,1.3-2.56,1.53-5.77,0.844-8.69,0.783-0.742,1.81-3.53,3.3-6.65,1.34-2.52,5.07-7.45,2.61-8.07-0.0826-0.021-0.181-0.059-0.281-0.062z" fill="none"/>
<g stroke="#65aa13" stroke-width="0.5" fill="#65aa13">
<path d="m-54,10.7c-0.683,0-1.34,0.544-1.34,1.31,0,0.272-0.03,0.394,0.107,0.596-2.95,2.3-3.87,4.69-4.08,6.53-0.126,1.55,0.162,3.03,0.594,4.44,0.421,1.16,0.861,2.44,1.31,3.44,1.3,2.1,2.64,4.16,4.31,5.12,3.96,2.4,7.35,5.66,7.66,10.1l1-0.0312c-0.241-5.65-4.24-8.13-8.12-10.9-1.88-0.955-3.11-2.88-3.94-4.69-0.516-1.14-0.894-2.25-1.28-3.38-0.503-1.29-0.562-2.8-0.531-4,0.18-1.64,0.778-3.71,3.83-5.98,0.0728,0.0124,0.412,0.0759,0.487,0.0759,0.683,0,1.38-0.544,1.38-1.31s-0.692-1.31-1.38-1.31z" transform="matrix(1.0074252,0,0,1.0074252,69.078343,3.918417)"/>
<path d="m35.1,12.2c-0.688,0-1.35,0.548-1.35,1.32,0,0.775,0.666,1.32,1.35,1.32h0.063c1.54,3.16,2.08,4.88,2.68,7.1,1.58,5.81,0.91,9.27-3.45,11.7,0.069,0.231,0.169,0.502,0.264,0.858,5.08-2.48,5.42-7,4.17-12.6-0.442-1.59-1.26-3.71-2.71-7.4,0.241-0.232,0.378-0.543,0.378-0.913,0-0.774-0.697-1.32-1.39-1.32z"/>
</g>
<path d="m34.4,38.8c0,1.21-0.983,2.19-2.2,2.19-1.21,0-2.2-0.978-2.2-2.19s0.983-2.19,2.2-2.19c1.21,0,2.2,0.978,2.2,2.19z" fill="#252220"/>
</svg>