<svg xmlns="http://www.w3.org/2000/svg" xmlns:xlink="http://www.w3.org/1999/xlink" version="1.1" viewBox="0 0 48 48">
<defs>
<linearGradient id="lg1" gradientUnits="userSpaceOnUse" x1="0" x2="0" y1="41" y2="5">
<stop stop-color="#9da7b7" offset="0"/>
<stop stop-color="#bcc1c8" offset="0.33"/>
<stop stop-color="#e2e5ea" offset="0.62"/>
<stop stop-color="#f7faff" offset="1"/>
</linearGradient>
<linearGradient id="lg2" xlink:href="#lg1" gradientUnits="userSpaceOnUse" x1="0" x2="0" y1="65" y2="21"/>
<clipPath id="cp1" clipPathUnits="userSpaceOnUse">
<rect y="25.62" width="16" x="57.25" height="35"/>
</clipPath>
<path id="p1" d="m58.98,29.1,0,14.53,0,14.53,8.169-7.266,8.185-7.265-8.185-7.265-8.169-7.265z" clip-path="url(#cp1)"/>
<path id="p2" d="m7.14,27.9s2.21-2.09,4.4-3.88c1.1-1.34,2.37-2.22,3.45-4.23,0.797-1.26-0.268-1.51,3.02-4.13,1.73-1.29,2.12-2.45,5.31-7.27,1.66-3.1,2.03-3.93,3.67-3.96,3.51,0.011,3.71,1.73,3.36,3.99,0.101,2.11-2.39,5.32-2.53,5.62-0.887,1.26-1.77,2.62-2.58,4.93,0,0,2.54-0.03,4.44,0.154,2.2,0.211,2.96-0.038,7.41,0.559,6.74,1.92,1.36,5.75,1.17,5.94,5.2,1.79,1.06,5.49,0.628,5.54,3.72,3.1-1.85,6.02-1.47,5.18,0.203-0.448,4.14,2.59-0.864,4.96,0,0-0.603,0.552-5.09,1.21-2.97,0.58-4.46,1.61-13.6,0.408-5.01-0.011-3.09,0.036-7.22,0.727z" />
<path id="p3" d="m10.16,7.9,0,15.47,0,15.47,13.32-7.74,13.34-7.74-13.34-7.74-13.32-7.74z"/>
<g id="s1">
<rect height="35" width="10" stroke="#494a4e" stroke-width="3" />
<rect height="35" width="10" stroke="#FFF" stroke-width="1.65" fill="url(#lg1)" x="3" y="3" />
</g>
<g id="s2">
<use xlink:href="#p1" transform="matrix(1.1609594,0,0,1.1957943,-48.905538,-28.16906)" stroke="#4d4e53" stroke-width="1.3"/>
<use xlink:href="#p1" transform="matrix(0.94692459,0,0,0.97533732,-35.100672,-18.634369)" fill="url(#lg2)"/>
</g>
</defs>
<style type="text/css">
svg > :not(defs):not(:target) { display: none; }
</style>
<g id="thumbsUp">
<use xlink:href="#p2" stroke="#4d4e53" stroke-width="4"/>
<use xlink:href="#p2" stroke="#FFF" troke-width="1.4" fill="url(#lg1)"/>
</g>
<g id="play">
<use xlink:href="#p3" stroke="#4d4e53" stroke-width="6"/>
<use xlink:href="#p3" stroke="#FFF" stroke-width="2" fill="url(#lg1)"/>
</g>
<g id="pause">
<use xlink:href="#s1" x="3.5" y="4"/>
<use xlink:href="#s1" x="27.5" y="4"/>
</g>
<g id="next">
<rect height="32" width="5.6" y="7.8" x="39.4" stroke="#4d4e53" stroke-width="1.5" fill="url(#lg1)"/>
<use xlink:href="#s2" />
<use xlink:href="#s2" x="-19"/>
</g>
</svg>