<!-- Created with Inkscape (http://www.inkscape.org/) -->
<svg xmlns:rdf="http://www.w3.org/1999/02/22-rdf-syntax-ns#" xmlns="http://www.w3.org/2000/svg" xmlns:osb="http://www.openswatchbook.org/uri/2009/osb" height="100%" width="100%" version="1.1" xmlns:cc="http://creativecommons.org/ns#" xmlns:xlink="http://www.w3.org/1999/xlink" viewBox="0 0 48 48" xmlns:dc="http://purl.org/dc/elements/1.1/">
<defs>
<linearGradient id="linearGradient4268" y2="1014.6" gradientUnits="userSpaceOnUse" x2="14.816" gradientTransform="matrix(0.22879929,0,0,0.90727336,37.612488,-910.56861)" y1="1045.9" x1="14.816">
<stop stop-color="#9da7b7" offset="0"/>
<stop stop-color="#bcc1c8" offset="0.33"/>
<stop stop-color="#e2e5ea" offset="0.62"/>
<stop stop-color="#f7faff" offset="1"/>
</linearGradient>
<clipPath id="clipPath4455-2-2-6" clipPathUnits="userSpaceOnUse">
<rect height="34.983" width="16.068" y="25.627" x="57.254" fill="#0F0"/>
</clipPath>
<clipPath id="clipPath4455-3-3-7-6" clipPathUnits="userSpaceOnUse">
<rect height="34.983" width="16.068" y="25.627" x="57.254" fill="#0F0"/>
</clipPath>
<clipPath id="clipPath4455-2-2-6-43" clipPathUnits="userSpaceOnUse">
<rect height="34.983" width="16.068" y="25.627" x="57.254" fill="#0F0"/>
</clipPath>
<clipPath id="clipPath4455-3-3-7-6-8" clipPathUnits="userSpaceOnUse">
<rect height="34.983" width="16.068" y="25.627" x="57.254" fill="#0F0"/>
</clipPath>
<linearGradient id="linearGradient4177" y2="31.884" gradientUnits="userSpaceOnUse" y1="55.491" x2="69.711" x1="69.711">
<stop stop-color="#9da7b7" offset="0"/>
<stop stop-color="#bac1c8" offset="0.33"/>
<stop stop-color="#e2e5ea" offset="0.67"/>
<stop stop-color="#f7faff" offset="1"/>
</linearGradient>
</defs>
<metadata>
<rdf:RDF>
<cc:Work rdf:about="">
<dc:format>image/svg+xml</dc:format>
<dc:type rdf:resource="http://purl.org/dc/dcmitype/StillImage"/>
<dc:title/>
</cc:Work>
</rdf:RDF>
</metadata>
<g stroke-miterlimit="4" transform="matrix(1.216567,0,0,1.010654,-7.0824077,-0.255696)">
<rect height="34.758" width="6.7255" stroke-dasharray="none" y="6.6209" x="37.81" stroke-width="1.65" fill="#494a4e"/>
<rect height="30.273" width="3.6017" y="8.8635" x="39.372" fill="url(#linearGradient4268)"/>
</g>
<g transform="translate(0.45078763,-0.12968263)">
<path d="m58.98,29.097,0,14.53,0,14.531,8.1686-7.2656,8.1846-7.2654-8.1846-7.2647-8.1686-7.2654z" clip-path="url(#clipPath4455-2-2-6)" transform="matrix(1.1609594,0,0,1.1957943,-48.905538,-28.16906)" stroke="#4d4e53" stroke-dasharray="none" stroke-miterlimit="4" stroke-width="1.28384042" fill="#494a4e"/>
<path d="m58.98,29.097,0,14.53,0,14.531,8.1686-7.2656,8.1846-7.2654-8.1846-7.2647-8.1686-7.2654z" clip-path="url(#clipPath4455-3-3-7-6)" transform="matrix(0.94692459,0,0,0.97533732,-35.100672,-18.634369)" fill="url(#linearGradient4177)"/>
</g>
<g transform="translate(-17.910213,3.7227545e-7)">
<path d="m58.98,29.097,0,14.53,0,14.531,8.1686-7.2656,8.1846-7.2654-8.1846-7.2647-8.1686-7.2654z" clip-path="url(#clipPath4455-2-2-6-43)" transform="matrix(1.1609594,0,0,1.1957943,-48.905538,-28.16906)" stroke="#4d4e53" stroke-dasharray="none" stroke-miterlimit="4" stroke-width="1.28384042" fill="#494a4e"/>
<path d="m58.98,29.097,0,14.53,0,14.531,8.1686-7.2656,8.1846-7.2654-8.1846-7.2647-8.1686-7.2654z" clip-path="url(#clipPath4455-3-3-7-6-8)" transform="matrix(0.94692459,0,0,0.97533732,-35.100672,-18.634369)" fill="url(#linearGradient4177)"/>
</g>
</svg>
