<svg xmlns="http://www.w3.org/2000/svg" version="1.1" viewBox="0 0 16 16">
<path d="m13.58,0.188c-0.05277,0.001603-0.645-0.008404-4.3,0.8404-3.709,0.938-4.49,1.114-4.49,1.368-0.036,0.313-0.028,4.691-0.071,7.232-0.047,0.332-0.154,0.682-0.527,0.562-0.763-0.289-1.662-0.19-2.346,0.22-0.723,0.31-1.309,1.09-1.27,1.91,0.0137,0.71,0.6841,1.18,1.348,1.24,0.704,0.16,1.408-0.03,1.955-0.39,0.684-0.36,1.739-0.94,1.778-1.76,0.024-1.645,0.03-2.935,0.034-4.499,0.003-1.29,0.009-2.541-0.024-3.713-0.006-0.235,1.583-0.469,4.104-0.997,3.709-0.801,1.369-0.313,3.709-0.782-0.01231,2.541-0.01876,4.3-0.07036,6.84-0.03518,0.1837-0.05082,0.4495-0.2541,0.5277-0.1935,0.04886-0.3713-0.08599-0.5668-0.1055-0.7231-0.1661-1.485-0.04495-2.15,0.3127-0.7231,0.3518-1.309,1.153-1.231,1.954,0.04104,0.5668,0.5277,1.016,1.055,1.173,0.43,0.1055,0.8795,0.1661,1.309,0.07036,0.5668-0.1114,1.075-0.43,1.544-0.7427,0.4886-0.3322,1.192-0.8404,1.192-1.446,0.05668-3.127,0.01212-6.45-0.01642-9.577-0.0029-0.3322-0.1661-0.3518-0.5472-0.3127z" fill-rule="evenodd" fill="#000"/>
</svg>