<svg xmlns="http://www.w3.org/2000/svg" version="1.1" viewBox="0 0 48 48">
<defs>
<linearGradient id="lg1" gradientUnits="userSpaceOnUse" x1="0" x2="0" y1="41" y2="5">
<stop stop-color="#9da7b7" offset="0"/>
<stop stop-color="#bcc1c8" offset="0.33"/>
<stop stop-color="#e2e5ea" offset="0.62"/>
<stop stop-color="#f7faff" offset="1"/>
</linearGradient>
</defs>
<g stroke-miterlimit="4">
<path d="m6.86,26s2.25-2.13,4.47-3.94c1.12-1.37,2.41-2.26,3.5-4.3,0.81-1.29-0.273-1.54,3.07-4.19,1.76-1.31,2.16-2.49,5.4-7.39,1.69-3.15,2.06-3.99,3.73-4.02,3.57,0.011,3.77,1.76,3.42,4.06,0.102,2.14-2.43,5.41-2.57,5.71-0.902,1.28-1.8,2.66-2.62,5.01,0,0,2.58-0.03,4.52,0.156,2.24,0.214,3.01-0.039,7.54,0.569,6.85,1.95,1.38,5.84,1.19,6.04,5.29,1.82,1.07,5.58,0.639,5.64,3.78,3.15-1.89,6.12-1.5,5.26,0.207-0.456,4.21,2.63-0.878,5.04,0,0-0.613,0.561-5.18,1.23-3.02,0.59-4.53,1.64-13.8,0.415-5.09-0.011-3.14,0.037-7.34,0.739z" stroke="#000" stroke-width="4.0" fill="#000"/>
<path d="m7.1,26s2.21-2.09,4.4-3.88c1.1-1.34,2.37-2.22,3.45-4.23,0.797-1.26-0.268-1.51,3.02-4.13,1.73-1.29,2.12-2.45,5.31-7.27,1.66-3.1,2.03-3.93,3.67-3.96,3.51,0.011,3.71,1.73,3.36,3.99,0.101,2.11-2.39,5.32-2.53,5.62-0.887,1.26-1.77,2.62-2.58,4.93,0,0,2.54-0.03,4.44,0.154,2.2,0.211,2.96-0.038,7.41,0.559,6.74,1.92,1.36,5.75,1.17,5.94,5.2,1.79,1.06,5.49,0.628,5.54,3.72,3.1-1.85,6.02-1.47,5.18,0.203-0.448,4.14,2.59-0.864,4.96,0,0-0.603,0.552-5.09,1.21-2.97,0.58-4.46,1.61-13.6,0.408-5.01-0.011-3.09,0.036-7.22,0.727z" stroke="#FFF" stroke-width="1.4" fill="url(#lg1)"/>
</g>
</svg>
